<?xml version="1.0" encoding="utf-8"?>
<!-- Generator: Adobe Illustrator 23.0.2, SVG Export Plug-In . SVG Version: 6.00 Build 0)  -->
<svg version="1.1" id="Слой_1" xmlns="http://www.w3.org/2000/svg" xmlns:xlink="http://www.w3.org/1999/xlink" x="0px" y="0px"
	 viewBox="0 0 16 16" style="enable-background:new 0 0 16 16;" xml:space="preserve">
<style type="text/css">
	.st0{fill:#FFFFFF;}
</style>
<circle class="st0" cx="8" cy="8" r="8"/>
<g>
	<path d="M4.6,6.5C4.1,6.2,3.7,6.4,3.7,7v2.3c0,0.6,0.5,1,1,1h6.6c0.6,0,1-0.4,1-1V7c0-0.6-0.4-0.8-0.9-0.5L8.9,8.1
		c-0.5,0.3-1.2,0.3-1.7,0L4.6,6.5z"/>
</g>
<g>
	<path d="M11.3,6c0.5-0.3,0.4-0.5-0.1-0.5H4.8C4.2,5.5,4.2,5.7,4.7,6l2.5,1.5c0.5,0.3,1.2,0.3,1.7,0L11.3,6z"/>
</g>
</svg>
