<svg fill="none" height="39" viewBox="0 0 174 39" width="174" xmlns="http://www.w3.org/2000/svg"
     xmlns:xlink="http://www.w3.org/1999/xlink">
    <linearGradient id="a" gradientUnits="userSpaceOnUse" x1="87.2585" x2="106.34" y1=".041504" y2=".04286">
        <stop offset="0" stop-color="#8eeac6"/>
        <stop offset="1" stop-color="#7b82f3"/>
    </linearGradient>
    <clipPath id="b">
        <path d="m0 0h174v39h-174z"/>
    </clipPath>
    <g clip-path="url(#b)">
        <path d="m3.90957 24.2603c-.04827.2416-.24133.3866-.48266.3866h-3.04078c-.193065 0-.38613-.1933-.38613-.435 0-.1933.0482663-.3866.241331-.9182l4.102639-12.855c.09653-.3383.24133-.3866.48266-.3866h3.08904c.24133 0 .38613.0966.48267.3866l4.15086 12.855c.1448.4833.2414.7249.2414.9182 0 .2417-.1931.3867-.3862.3867h-2.99247c-.2896 0-.4344-.145-.53093-.3867l-.4344-1.5948h-4.10263zm3.28211-5.9443c-.1448-.4349-.67573-2.513-.67573-2.7546 0-.1933-.04827-.29-.1448-.29s-.1448.0484-.1448.29-.53093 2.2714-.67573 2.7546l-.38613 1.3049h2.31679z"
              fill="#fff"/>
        <path d="m17.9068 24.7435c-2.3168 0-4.4405-1.5465-4.4405-5.5576 0-4.0112 2.1237-5.5576 4.4405-5.5576 1.6411 0 2.3168.6282 2.7512 1.1115v-5.99257c0-.24164.1931-.43494.4344-.43494h3.1856c.2413 0 .4344.1933.4344.43494v13.28997c0 .4833.1448.7249.4343.7249v.29c0 .7732-.2895 1.7397-2.1719 1.7397-1.1584 0-1.8824-.3866-2.172-1.1115-.4344.4833-1.1101 1.0632-2.896 1.0632zm2.7512-3.6245v-3.8662c-.3861-.2416-.8688-.3383-1.3997-.3383-1.1102 0-1.7376.4833-1.7376 2.2714s.6274 2.2714 1.7376 2.2714c.5309 0 1.0136-.145 1.3997-.3383z"
              fill="#fff"/>
        <path d="m27.2222 24.2119v-10.052c0-.2417.193-.435.4344-.435h1.5445c1.0618 0 1.9306.3866 2.0754 1.4982.5792-.6766 1.6411-1.5948 3.1373-1.5948 1.5446 0 2.4134.6765 2.8478 1.7881.6274-.9666 1.8341-1.7881 3.4269-1.7881 2.4615 0 3.1373 1.6431 3.1373 3.8178v6.8141c0 .2417-.1931.435-.4344.435h-3.1856c-.2413 0-.4344-.1933-.4344-.435v-6.0892c0-.7732-.4344-1.0149-.8688-1.0149-.6275 0-1.3514.3867-1.3514.3867v6.6691c0 .2416-.1931.435-.4344.435h-3.1856c-.2413 0-.4344-.1934-.4344-.435v-6.0409c0-.7732-.4344-1.0149-.8688-1.0149-.6275 0-1.3515.3867-1.3515.3867v6.6691c0 .2416-.193.435-.4344.435h-3.1855c-.2414 0-.4344-.1934-.4344-.435z"
              fill="#fff"/>
        <path d="m46.1909 24.2119v-10.052c0-.2417.1931-.435.4344-.435h3.1856c.2413 0 .4344.1933.4344.435v10.052c0 .2417-.1931.435-.4344.435h-3.1856c-.2413 0-.4344-.1933-.4344-.435zm2.0272-15.89961c1.0619 0 1.9307.86989 1.9307 1.93311 0 1.0632-.8688 1.9331-1.9307 1.9331s-1.9306-.8699-1.9306-1.9331c0-1.06322.8687-1.93311 1.9306-1.93311z"
              fill="#fff"/>
        <path d="m53.2861 22.2788v-6.0892h-1.0619c-.2413 0-.4344-.1933-.4344-.435v-1.6431c0-.2416.1931-.4349.4344-.4349h1.0619v-2.2231c0-.2416.193-.4349.4344-.4349h3.1855c.2414 0 .4344.1933.4344.4349v2.2231h1.5928c.2413 0 .4344.1933.4344.4349v1.6431c0 .2417-.1931.435-.4344.435h-1.5928v4.9777c0 .4349.0966.7249.531.7249.3378 0 .5309-.0483.917-.1933.2896-.0967.5309 0 .5309.4833v.6765c0 .6283-.0965.9666-.2895 1.1599-.5792.5799-1.5446.7732-2.896.7732-1.6411 0-2.8477-.8215-2.8477-2.513z"
              fill="#fff"/>
        <path d="m64.0977 24.7435c-1.9307 0-3.5235-.9182-3.5235-3.4312 0-2.368 1.8341-3.4312 4.2475-3.4312.8687 0 1.5445.0966 1.9789.1933v-.29c0-.9665-.0966-1.3531-1.3032-1.3531-1.3515 0-2.2203.3383-2.7512.4832-.4344.145-.7723.2417-1.0136.2417-.2896 0-.3861-.145-.3861-.58v-1.3531c0-.5316.2413-.8216.8688-1.1599.917-.4349 2.7512-.6765 4.0543-.6765 3.0408 0 4.4888 1.1115 4.4888 3.8661v4.6878c0 .4832.1448.7249.4344.7249v.2899c0 .7733-.2896 1.7398-2.172 1.7398-1.1584 0-1.8341-.3866-2.1237-1.0632-.5309.5799-1.2549 1.1115-2.7994 1.1115zm2.6063-2.6096v-2.2714c-.2413-.0967-.5792-.1933-1.0136-.1933-.8205 0-1.2549.3383-1.2549 1.3531 0 1.0149.4344 1.3532 1.2549 1.3532.4344 0 .7723-.145 1.0136-.2416z"
              fill="#fff"/>
        <path d="m76.7916 24.7435c-2.3168 0-4.4405-1.5465-4.4405-5.5576 0-4.0112 2.1237-5.5576 4.4405-5.5576 1.641 0 2.3168.6282 2.7512 1.1115v-5.99257c0-.24164.193-.43494.4343-.43494h3.1856c.2414 0 .4344.1933.4344.43494v13.28997c0 .4833.1448.7249.4344.7249v.29c0 .7732-.2896 1.7397-2.172 1.7397-1.1584 0-1.8823-.3866-2.1719-1.1115-.4827.4833-1.1102 1.0632-2.896 1.0632zm2.7512-3.6245v-3.8662c-.3862-.1933-.8688-.3383-1.3998-.3383-1.1101 0-1.7376.4833-1.7376 2.2714s.6275 2.2714 1.7376 2.2714c.531 0 .9654-.145 1.3998-.3383z"
              fill="#fff"/>
        <path d="m88.0376 39c-.0965 0-.2413 0-.3378-.0483-.3862-.1933-.531-.6283-.3862-1.0149l17.5694-37.453531c.193-.3866173.627-.5315987 1.013-.3866173.386.1933083.531.6282523.386 1.0148683l-17.5687 37.45358c-.1447.2416-.3861.4349-.6757.4349z"
              fill="#c4c4c4"/>
        <path d="m88.0376 39c-.0965 0-.2413 0-.3378-.0483-.3862-.1933-.531-.6283-.3862-1.0149l17.5694-37.453531c.193-.3866173.627-.5315987 1.013-.3866173.386.1933083.531.6282523.386 1.0148683l-17.5687 37.45358c-.1447.2416-.3861.4349-.6757.4349z"
              fill="url(#a)"/>
        <g fill="#fff">
            <path d="m112.123 24.2119h-2.462v4.8327h-1.641v-13.6282h4.103c3.909 0 5.695 1.4498 5.695 4.3011.048 2.8513-1.931 4.4944-5.695 4.4944zm0-7.2974h-2.414v5.8476h2.414c2.799 0 4.054-1.1599 4.054-2.9963 0-1.8848-1.255-2.8513-4.054-2.8513z"/>
            <path d="m124.575 20.7323h-.386c-1.4 0-2.22.7249-2.703 1.6915v6.6208h-1.641v-9.6171h1.593v1.4981h.048c.386-.8698 1.062-1.6914 3.089-1.6914z"/>
            <path d="m129.981 29.2863c-2.461 0-4.633-1.5948-4.633-5.0744 0-3.4312 2.123-5.026 4.633-5.026s4.634 1.5948 4.634 5.026c0 3.4796-2.124 5.0744-4.634 5.0744zm0-8.6506c-1.689 0-2.944 1.1598-2.944 3.5762s1.255 3.5279 2.944 3.5279c1.738 0 2.993-1.1115 2.993-3.5279 0-2.368-1.303-3.5762-2.993-3.5762z"/>
            <path d="m138.766 30.0111c0 2.3197-1.11 3.1413-2.896 3.1413-.579 0-.869-.0967-1.014-.145v-1.4015c.145.0484.435.145.821.145.965 0 1.448-.4833 1.448-1.8364v-10.487h1.641zm0-12.2267h-1.69v-1.9331h1.69z"/>
            <path d="m145.523 19.1859c2.51 0 3.909 1.4981 3.909 4.6394v.9182h-6.66c.193 2.0297 1.206 3.0446 3.137 3.0446 1.593 0 2.558-.7732 2.896-1.0149l.627 1.2082c-.434.435-1.544 1.3049-3.764 1.3049-2.703 0-4.537-1.5948-4.537-5.0744 0-3.2379 1.93-5.026 4.392-5.026zm-2.751 4.1561h5.116c0-1.7398-.821-2.7063-2.365-2.7063-1.496 0-2.607.9182-2.751 2.7063z"/>
            <path d="m158.41 21.3606c-.434-.3383-1.062-.7249-2.22-.7249-1.834 0-3.427 1.0632-3.427 3.5279 0 2.5613 1.303 3.6245 3.185 3.6245 1.304 0 2.076-.3866 2.462-.6766l.531 1.3532c-.531.3383-1.448.8699-3.186.8699-2.751 0-4.633-1.4982-4.633-5.0744 0-3.4795 2.413-5.026 4.923-5.026 1.641 0 2.462.4833 2.993.8699z"/>
            <path d="m165.746 20.829h-2.558v4.9294c0 1.6431.58 2.0297 1.641 2.0297.435 0 .773-.0967.917-.145v1.3532c-.144.0483-.579.1933-1.254.1933-1.69 0-2.945-.6283-2.945-3.2863v-5.0743h-1.351v-1.4015h1.351v-2.1747h1.641v2.1747h2.558z"/>
            <path d="m173.18 21.4573c-.483-.3383-1.304-.8216-2.51-.8216-1.11 0-1.786.3866-1.786 1.0632 0 .7732.434 1.1115 2.317 1.7398 1.834.6282 2.847 1.4498 2.847 2.9479 0 1.7398-1.206 2.8997-3.475 2.8997-1.93 0-2.896-.6766-3.427-1.0632l.628-1.4499c.434.3867 1.303 1.0149 2.751 1.0149 1.255 0 1.882-.5316 1.882-1.2565 0-.7732-.386-1.1598-2.22-1.8364-1.834-.6283-2.896-1.3049-2.896-2.948 0-1.5948 1.303-2.5613 3.33-2.5613 1.738 0 2.655.5799 3.138.9182z"/>
        </g>
    </g>
</svg>